<?xml version="1.0" encoding="UTF-8"?>
<svg version="1.1" xmlns="http://www.w3.org/2000/svg" width="512" height="512">
<path d="M0 0 C7.2722836 4.25960064 10.67368584 10.39767235 13.25 18.1953125 C13.5380249 19.02022186 13.8260498 19.84513123 14.12280273 20.69503784 C15.03436481 23.31262826 15.92467191 25.93677506 16.8125 28.5625 C17.99108877 32.00572718 19.17895973 35.44560913 20.375 38.8828125 C20.66321121 39.711866 20.95142242 40.54091949 21.24836731 41.39509583 C33.49775165 76.09328565 56.18220341 102.21681543 89.18408203 118.32592773 C97.51418675 122.23651088 106.26319426 125.14559843 114.9375 128.1875 C117.69479213 129.15704941 120.45076455 130.12974024 123.20333862 131.11260986 C124.8967613 131.71716529 126.59285492 132.31431224 128.29202271 132.90252686 C136.12475597 135.69618633 141.84488785 139.24417873 146.0625 146.625 C147.85850766 153.36002872 147.42485719 159.34221512 144.2734375 165.55078125 C140.10880227 170.92917381 135.22890778 173.43507615 129 175.6875 C128.23445801 175.97633057 127.46891602 176.26516113 126.68017578 176.56274414 C122.02093761 178.30639388 117.33203037 179.96185525 112.63671875 181.60546875 C90.40360251 189.40947014 71.50675981 198.67781259 53.8125 214.4375 C53.15507812 215.00984375 52.49765625 215.5821875 51.8203125 216.171875 C47.80013029 219.90352739 44.57660048 224.23827856 41.3125 228.625 C40.65386963 229.50623535 40.65386963 229.50623535 39.98193359 230.40527344 C33.13419648 239.83320763 27.95654991 249.70420135 23.9375 260.625 C23.51750732 261.73343262 23.09751465 262.84186523 22.66479492 263.98388672 C20.49048201 269.76002994 18.41113226 275.56127879 16.41796875 281.40234375 C16.0317334 282.52036377 15.64549805 283.63838379 15.24755859 284.7902832 C14.52065934 286.90916765 13.81022673 289.03380256 13.11962891 291.16479492 C10.4077319 299.07877094 6.75557438 305.10086333 -0.5625 309.4375 C-7.78398792 311.4296346 -13.19605455 310.86712636 -20.046875 307.8984375 C-26.33764832 303.60509951 -28.54099471 297.72417924 -30.89453125 290.7890625 C-31.22361984 289.85887299 -31.55270844 288.92868347 -31.89176941 287.9703064 C-32.93996659 285.00512816 -33.97167185 282.03462211 -35 279.0625 C-42.86699975 256.37984948 -51.31360532 236.0308243 -68.1875 218.4375 C-68.991875 217.591875 -69.79625 216.74625 -70.625 215.875 C-71.470625 215.070625 -72.31625 214.26625 -73.1875 213.4375 C-73.8578125 212.78394531 -74.528125 212.13039063 -75.21875 211.45703125 C-92.7030598 194.96614814 -114.57087636 186.98578897 -136.93066406 179.35668945 C-139.48059478 178.48292529 -142.02548612 177.59553141 -144.5703125 176.70703125 C-145.33393097 176.4517012 -146.09754944 176.19637115 -146.88430786 175.93330383 C-153.75108422 173.52805886 -160.04976106 170.25372256 -163.46484375 163.453125 C-165.71003442 157.19086344 -165.86842206 151.27056144 -163.125 145.18359375 C-158.47744957 136.52753108 -149.91955793 134.17460309 -141.10546875 131.1171875 C-139.34941724 130.49272754 -137.59356448 129.86770846 -135.83789062 129.2421875 C-133.12687844 128.28213341 -130.41463298 127.32629544 -127.69848633 126.38085938 C-109.18940979 119.91926168 -92.25107206 112.1453628 -77.1875 99.4375 C-76.07181641 98.54804688 -76.07181641 98.54804688 -74.93359375 97.640625 C-69.19768733 92.92618137 -64.71787536 87.2895666 -60.1875 81.4375 C-59.50558594 80.58285156 -58.82367188 79.72820312 -58.12109375 78.84765625 C-45.75848029 62.75932366 -39.61166337 43.15692187 -33.015625 24.21875 C-32.4906543 22.72915771 -32.4906543 22.72915771 -31.95507812 21.20947266 C-31.29598969 19.33309469 -30.64810518 17.45272817 -30.01367188 15.56787109 C-27.86188251 9.4389894 -25.57347338 4.74836505 -20.046875 0.9765625 C-13.14762096 -2.01311425 -7.06848603 -3.10422105 0 0 Z M-9.1875 57.4375 C-9.455625 58.0459375 -9.72375 58.654375 -10 59.28125 C-28.70371608 101.11850965 -56.85440708 134.89090639 -100.66748047 151.76245117 C-102.17102084 152.32918277 -103.67876992 152.88473251 -105.1875 153.4375 C-105.1875 154.0975 -105.1875 154.7575 -105.1875 155.4375 C-104.64561035 155.65253174 -104.1037207 155.86756348 -103.54541016 156.08911133 C-84.64218717 163.67388526 -68.30475944 172.75025159 -53.1875 186.4375 C-52.29546875 187.19804687 -51.4034375 187.95859375 -50.484375 188.7421875 C-44.27928829 194.09074384 -39.14517606 199.92630558 -34.1875 206.4375 C-33.58421875 207.22036377 -33.58421875 207.22036377 -32.96875 208.01904297 C-23.58928426 220.27463395 -16.20374541 233.48722654 -11.16015625 248.09375 C-10.42292878 250.59257503 -10.42292878 250.59257503 -8.1875 251.4375 C-7.96199463 250.8798999 -7.73648926 250.3222998 -7.50415039 249.74780273 C1.60376871 227.40827327 12.98709521 208.86698176 29.8125 191.4375 C30.35108643 190.87482422 30.88967285 190.31214844 31.44458008 189.73242188 C46.71512214 174.07384555 67.11214745 162.33761752 87.8125 155.4375 C87.8125 154.7775 87.8125 154.1175 87.8125 153.4375 C86.92691406 153.10878906 86.04132813 152.78007812 85.12890625 152.44140625 C63.11438681 144.07643087 44.58189112 131.97235418 27.8125 115.4375 C26.90113281 114.53902344 25.98976562 113.64054687 25.05078125 112.71484375 C9.8576876 96.95824021 -0.22478545 77.65054462 -8.1875 57.4375 C-8.5175 57.4375 -8.8475 57.4375 -9.1875 57.4375 Z " fill="#000000" transform="translate(218.1875,101.5625)"/>
<path d="M0 0 C6.6569538 4.82955472 8.50612208 11.48112951 11.0625 19 C16.97887777 35.73431017 23.89660093 48.82978593 40.1875 57.3125 C46.31056868 60.03015426 52.55076715 62.37281329 58.859375 64.62109375 C69.59184318 68.51829091 69.59184318 68.51829091 73.1875 73.3125 C73.765 74.055 74.3425 74.7975 74.9375 75.5625 C77.30310731 80.76683608 77.89595466 85.99497944 76.1875 91.5 C73.12887536 98.16094602 67.34685908 101.63529446 60.67993164 104.12475586 C59.53899048 104.52706421 59.53899048 104.52706421 58.375 104.9375 C57.57892334 105.23470947 56.78284668 105.53191895 55.96264648 105.83813477 C52.7139333 107.04989583 49.45302443 108.21973887 46.1796875 109.36328125 C33.04152385 114.15807731 22.57612797 123.5705781 16.625 136.1875 C14.66759151 140.4679867 12.98969354 144.80123614 11.4765625 149.2578125 C5.56796349 166.62226826 5.56796349 166.62226826 -3.8125 171.3125 C-9.66725711 171.80578755 -15.00234281 172.16994288 -20.375 169.625 C-24.56789874 165.6471217 -27.20299313 161.97850904 -29.14453125 156.5234375 C-29.55123047 155.41613281 -29.95792969 154.30882812 -30.37695312 153.16796875 C-31.20020307 150.87214496 -32.02058029 148.57528874 -32.83789062 146.27734375 C-38.45843291 131.01276265 -46.79021148 118.64182484 -61.65771484 111.27050781 C-67.37933619 108.72670063 -73.34437757 106.69219259 -79.27148438 104.68383789 C-85.97856548 102.33084594 -92.23957053 99.76412931 -95.94262695 93.35717773 C-98.3672535 87.65797838 -98.28606106 82.29056855 -96.02148438 76.60839844 C-91.89491266 68.77191208 -83.97859124 65.79791778 -76 63.25 C-58.69256991 57.30610625 -45.77889679 49.88397766 -36.8125 33.3125 C-34.46924251 27.64593284 -32.60056798 21.82449217 -30.72851562 15.98828125 C-27.72493243 7.2479033 -24.18332153 2.05504716 -15.875 -2.1875 C-10.26993185 -3.10261317 -5.0954306 -2.6133217 0 0 Z M-10.8125 54.3125 C-11.14121094 54.84617187 -11.46992188 55.37984375 -11.80859375 55.9296875 C-17.75184332 65.23916786 -24.74215177 72.85668089 -33.55078125 79.5234375 C-35.81563272 81.31497804 -37.81152326 83.23368206 -39.8125 85.3125 C-39.06226563 85.84617187 -38.31203125 86.37984375 -37.5390625 86.9296875 C-26.8463667 94.7135391 -18.01587708 103.10194627 -10.8125 114.3125 C-7.68922493 111.37851433 -5.02643685 108.35629923 -2.4375 104.9375 C2.96820637 97.91589431 8.67747492 92.72732536 16.05078125 87.79296875 C18.2686301 86.3503775 18.2686301 86.3503775 20.1875 84.3125 C19.58164062 83.91160156 18.97578125 83.51070312 18.3515625 83.09765625 C8.19660342 76.20790709 0.1147007 68.7642824 -7 58.81640625 C-8.72463011 56.29492672 -8.72463011 56.29492672 -10.8125 54.3125 Z " fill="#000000" transform="translate(381.8125,324.6875)"/>
<path d="M0 0 C3.5625 1.75 3.5625 1.75 6 4 C6.66596191 4.59804443 7.33192383 5.19608887 8.01806641 5.81225586 C10.21886579 8.24159354 11.07652984 10.17047395 12.1484375 13.25390625 C12.51453125 14.27419922 12.880625 15.29449219 13.2578125 16.34570312 C13.62648438 17.40724609 13.99515625 18.46878906 14.375 19.5625 C20.36788098 36.73852495 27.94557145 51.33697835 44.76318359 59.97607422 C50.50843792 62.60602365 56.52561032 64.6661796 62.51000977 66.67993164 C69.21784463 69.00971274 75.42731931 71.57578132 79.1418457 77.96362305 C81.46585619 82.97065901 81.38554749 87.72353149 80 93 C78.00454143 98.22522142 74.88900717 101.41403417 70 104 C65.11226906 106.02099124 60.10928357 107.72587357 55.1171875 109.46875 C38.8166196 115.34023919 27.19719289 123.95327812 19.6640625 139.8125 C17.79228776 144.19984462 16.11929595 148.64278136 14.53515625 153.140625 C14.15242554 154.208573 14.15242554 154.208573 13.76196289 155.2980957 C13.26705145 156.68768523 12.78498143 158.08193982 12.31811523 159.48120117 C10.33770201 165.05970226 7.34500509 168.17610715 2.75 171.75 C-2.45433608 174.11560731 -7.68247944 174.70845466 -13.1875 173 C-19.84844602 169.94137536 -23.32279446 164.15935908 -25.81225586 157.49243164 C-26.08046143 156.7318042 -26.34866699 155.97117676 -26.625 155.1875 C-26.92220947 154.39142334 -27.21941895 153.59534668 -27.52563477 152.77514648 C-28.73739583 149.5264333 -29.90723887 146.26552443 -31.05078125 142.9921875 C-36.58752499 127.82102182 -47.30850968 118.7184635 -61.484375 111.96875 C-65.4300088 110.17941031 -69.4527665 108.75043482 -73.55175781 107.35595703 C-87.03728937 102.75849752 -87.03728937 102.75849752 -90.96875 97.1015625 C-93.72005598 91.4947344 -94.90036006 86.08723398 -92.88696289 80.03100586 C-90.67474965 74.96538463 -87.05955229 71.15430711 -81.96875 68.99609375 C-80.48616629 68.45691218 -78.99609876 67.93795951 -77.5 67.4375 C-75.89654527 66.8544851 -74.2936863 66.26982928 -72.69140625 65.68359375 C-71.90008301 65.40112793 -71.10875977 65.11866211 -70.29345703 64.82763672 C-53.44351731 58.74702189 -40.44814257 50.32964808 -32.5625 33.72265625 C-31.28792116 30.78929934 -30.16803474 27.80940802 -29.0625 24.80859375 C-28.55009766 23.42172363 -28.55009766 23.42172363 -28.02734375 22.00683594 C-27.35739373 20.16829438 -26.70295048 18.32400562 -26.06640625 16.47363281 C-23.79311474 10.15133556 -21.00514808 4.33625483 -15.00146484 0.83422852 C-10.36542611 -1.09811405 -4.9034723 -0.50072818 0 0 Z M-7 57 C-7.53367187 57.75023437 -8.06734375 58.50046875 -8.6171875 59.2734375 C-16.4010391 69.9661333 -24.78944627 78.79662292 -36 86 C-33.06601433 89.12327507 -30.04379923 91.78606315 -26.625 94.375 C-19.60339431 99.78070637 -14.41482536 105.48997492 -9.48046875 112.86328125 C-8.0378775 115.0811301 -8.0378775 115.0811301 -6 117 C-5.59910156 116.39414063 -5.19820312 115.78828125 -4.78515625 115.1640625 C2.10459291 105.00910342 9.5482176 96.9272007 19.49609375 89.8125 C22.01757328 88.08786989 22.01757328 88.08786989 24 86 C23.46632813 85.67128906 22.93265625 85.34257813 22.3828125 85.00390625 C12.68637015 78.81361693 5.00355754 71.42014045 -2.08984375 62.3828125 C-3.64212705 60.44642638 -5.20139636 58.70275329 -7 57 Z " fill="#000000" transform="translate(378,16)"/>
</svg>
